<mxfile host="Electron" modified="2023-05-27T09:12:49.818Z" agent="Mozilla/5.0 (Windows NT 10.0; Win64; x64) AppleWebKit/537.36 (KHTML, like Gecko) draw.io/21.2.8 Chrome/112.0.5615.165 Electron/24.2.0 Safari/537.36" etag="GeZfNSGAKJq6YKSgPfUA" version="21.2.8" type="device">
  <diagram id="aZsZGnBNUBIaqPkSFFw-" name="Page-1">
    <mxGraphModel dx="1598" dy="544" grid="1" gridSize="10" guides="1" tooltips="1" connect="1" arrows="1" fold="1" page="1" pageScale="1" pageWidth="850" pageHeight="1100" math="0" shadow="0">
      <root>
        <mxCell id="0" />
        <mxCell id="1" parent="0" />
        <mxCell id="7NoqYiZV03NRhSZWAG24-5" value="" style="rounded=0;whiteSpace=wrap;html=1;align=left;" parent="1" vertex="1">
          <mxGeometry x="80" y="240" width="330" height="1440" as="geometry" />
        </mxCell>
        <mxCell id="7NoqYiZV03NRhSZWAG24-46" value="&lt;b&gt;&lt;font style=&quot;font-size: 28px;&quot;&gt;1 2 3 4 5 6 7 8 9 10 11 12&lt;/font&gt;&lt;/b&gt;" style="rounded=0;whiteSpace=wrap;html=1;fontSize=22;" parent="1" vertex="1">
          <mxGeometry x="80" y="330" width="330" height="60" as="geometry" />
        </mxCell>
        <mxCell id="7NoqYiZV03NRhSZWAG24-56" value="" style="rounded=0;whiteSpace=wrap;html=1;align=left;" parent="1" vertex="1">
          <mxGeometry x="425" y="240" width="330" height="1440" as="geometry" />
        </mxCell>
        <mxCell id="7NoqYiZV03NRhSZWAG24-57" value="&lt;b&gt;&lt;font style=&quot;font-size: 28px;&quot;&gt;1 2 3 4 5 6 7 8 9 10 11 12&lt;/font&gt;&lt;/b&gt;" style="rounded=0;whiteSpace=wrap;html=1;fontSize=22;" parent="1" vertex="1">
          <mxGeometry x="425" y="330" width="330" height="60" as="geometry" />
        </mxCell>
        <mxCell id="7NoqYiZV03NRhSZWAG24-58" value="" style="rounded=0;whiteSpace=wrap;html=1;align=left;" parent="1" vertex="1">
          <mxGeometry x="780" y="240" width="330" height="1440" as="geometry" />
        </mxCell>
        <mxCell id="7NoqYiZV03NRhSZWAG24-59" value="&lt;b&gt;&lt;font style=&quot;font-size: 28px;&quot;&gt;1 2 3 4 5 6 7 8 9 10 11 12&lt;/font&gt;&lt;/b&gt;" style="rounded=0;whiteSpace=wrap;html=1;fontSize=22;" parent="1" vertex="1">
          <mxGeometry x="782" y="330" width="330" height="60" as="geometry" />
        </mxCell>
        <mxCell id="7NoqYiZV03NRhSZWAG24-60" value="" style="rounded=0;whiteSpace=wrap;html=1;align=left;" parent="1" vertex="1">
          <mxGeometry x="1130" y="240" width="330" height="1440" as="geometry" />
        </mxCell>
        <mxCell id="7NoqYiZV03NRhSZWAG24-61" value="&lt;b&gt;&lt;font style=&quot;font-size: 28px;&quot;&gt;1 2 3 4 5 6 7 8 9 10 11 12&lt;/font&gt;&lt;/b&gt;" style="rounded=0;whiteSpace=wrap;html=1;fontSize=22;" parent="1" vertex="1">
          <mxGeometry x="1130" y="330" width="330" height="60" as="geometry" />
        </mxCell>
        <mxCell id="7NoqYiZV03NRhSZWAG24-62" value="" style="rounded=0;whiteSpace=wrap;html=1;align=left;" parent="1" vertex="1">
          <mxGeometry x="1469" y="240" width="330" height="1437" as="geometry" />
        </mxCell>
        <mxCell id="7NoqYiZV03NRhSZWAG24-63" value="&lt;b&gt;&lt;font style=&quot;font-size: 28px;&quot;&gt;1 2 3 4 5 6 7 8 9 10 11 12&lt;/font&gt;&lt;/b&gt;" style="rounded=0;whiteSpace=wrap;html=1;fontSize=22;" parent="1" vertex="1">
          <mxGeometry x="1469" y="330" width="330" height="60" as="geometry" />
        </mxCell>
        <mxCell id="7NoqYiZV03NRhSZWAG24-64" value="&lt;b&gt;&lt;font style=&quot;font-size: 28px;&quot;&gt;YEAR 1&lt;/font&gt;&lt;/b&gt;" style="rounded=0;whiteSpace=wrap;html=1;" parent="1" vertex="1">
          <mxGeometry x="80" y="240" width="330" height="60" as="geometry" />
        </mxCell>
        <mxCell id="7NoqYiZV03NRhSZWAG24-65" value="&lt;b&gt;&lt;font style=&quot;font-size: 28px;&quot;&gt;YEAR 2&lt;/font&gt;&lt;/b&gt;" style="rounded=0;whiteSpace=wrap;html=1;" parent="1" vertex="1">
          <mxGeometry x="425" y="240" width="330" height="60" as="geometry" />
        </mxCell>
        <mxCell id="7NoqYiZV03NRhSZWAG24-66" value="&lt;b&gt;&lt;font style=&quot;font-size: 28px;&quot;&gt;YEAR 3&lt;/font&gt;&lt;/b&gt;" style="rounded=0;whiteSpace=wrap;html=1;" parent="1" vertex="1">
          <mxGeometry x="782" y="240" width="330" height="60" as="geometry" />
        </mxCell>
        <mxCell id="7NoqYiZV03NRhSZWAG24-67" value="&lt;b&gt;&lt;font style=&quot;font-size: 28px;&quot;&gt;YEAR 4&lt;/font&gt;&lt;/b&gt;" style="rounded=0;whiteSpace=wrap;html=1;" parent="1" vertex="1">
          <mxGeometry x="1130" y="240" width="330" height="60" as="geometry" />
        </mxCell>
        <mxCell id="7NoqYiZV03NRhSZWAG24-68" value="&lt;b&gt;&lt;font style=&quot;font-size: 28px;&quot;&gt;YEAR 5&lt;/font&gt;&lt;/b&gt;" style="rounded=0;whiteSpace=wrap;html=1;" parent="1" vertex="1">
          <mxGeometry x="1469" y="240" width="330" height="60" as="geometry" />
        </mxCell>
        <mxCell id="7NoqYiZV03NRhSZWAG24-45" value="&lt;b&gt;&lt;font style=&quot;font-size: 28px;&quot;&gt;&amp;nbsp; Read literature&lt;/font&gt;&lt;/b&gt;" style="rounded=0;whiteSpace=wrap;html=1;fontSize=18;align=left;fillColor=#6d8764;strokeColor=#3A5431;fontColor=#ffffff;" parent="1" vertex="1">
          <mxGeometry x="83" y="440" width="1717" height="60" as="geometry" />
        </mxCell>
        <mxCell id="7NoqYiZV03NRhSZWAG24-72" value="&lt;blockquote style=&quot;margin: 0 0 0 40px; border: none; padding: 0px;&quot;&gt;&lt;b style=&quot;font-size: 28px;&quot;&gt;Develop method, protocol design,&lt;br&gt; &lt;/b&gt;&lt;b style=&quot;font-size: 28px;&quot;&gt;explore projects&lt;/b&gt;&lt;/blockquote&gt;" style="rounded=0;whiteSpace=wrap;html=1;fontSize=18;align=left;fillColor=#a0522d;strokeColor=#6D1F00;fontColor=#ffffff;" parent="1" vertex="1">
          <mxGeometry x="90" y="520" width="370" height="130" as="geometry" />
        </mxCell>
        <mxCell id="7NoqYiZV03NRhSZWAG24-73" value="&lt;blockquote style=&quot;margin: 0 0 0 40px; border: none; padding: 0px;&quot;&gt;&lt;b&gt;&lt;font style=&quot;font-size: 28px;&quot;&gt;perform experiments on main project&lt;/font&gt;&lt;/b&gt;&lt;/blockquote&gt;" style="rounded=0;whiteSpace=wrap;html=1;fontSize=18;align=left;fillColor=#647687;strokeColor=#314354;fontColor=#ffffff;" parent="1" vertex="1">
          <mxGeometry x="330" y="790" width="1469" height="60" as="geometry" />
        </mxCell>
        <mxCell id="7NoqYiZV03NRhSZWAG24-80" value="&lt;b&gt;CM&lt;/b&gt;" style="whiteSpace=wrap;html=1;aspect=fixed;fontSize=28;" parent="1" vertex="1">
          <mxGeometry x="730" y="870" width="100" height="100" as="geometry" />
        </mxCell>
        <mxCell id="7NoqYiZV03NRhSZWAG24-81" value="&lt;b&gt;write main paper&lt;/b&gt;" style="rounded=0;whiteSpace=wrap;html=1;fontSize=28;fillColor=#60a917;strokeColor=#2D7600;fontColor=#ffffff;" parent="1" vertex="1">
          <mxGeometry x="1070" y="1260" width="280" height="110" as="geometry" />
        </mxCell>
        <mxCell id="7NoqYiZV03NRhSZWAG24-82" value="&lt;b&gt;CM&lt;/b&gt;" style="whiteSpace=wrap;html=1;aspect=fixed;fontSize=28;" parent="1" vertex="1">
          <mxGeometry x="359" y="670" width="100" height="100" as="geometry" />
        </mxCell>
        <mxCell id="7NoqYiZV03NRhSZWAG24-83" value="&lt;b&gt;CM&lt;/b&gt;" style="whiteSpace=wrap;html=1;aspect=fixed;fontSize=28;" parent="1" vertex="1">
          <mxGeometry x="1070" y="1130" width="100" height="100" as="geometry" />
        </mxCell>
        <mxCell id="7NoqYiZV03NRhSZWAG24-84" value="&lt;b&gt;IC&lt;/b&gt;" style="whiteSpace=wrap;html=1;aspect=fixed;fontSize=28;fillColor=#6a00ff;strokeColor=#3700CC;fontColor=#ffffff;" parent="1" vertex="1">
          <mxGeometry x="895" y="1580" width="100" height="100" as="geometry" />
        </mxCell>
        <mxCell id="7NoqYiZV03NRhSZWAG24-85" value="&lt;b&gt;&amp;nbsp;sketch paper draft&lt;/b&gt;" style="rounded=0;whiteSpace=wrap;html=1;fontSize=28;fillColor=#60a917;strokeColor=#2D7600;fontColor=#ffffff;" parent="1" vertex="1">
          <mxGeometry x="730" y="990" width="100" height="240" as="geometry" />
        </mxCell>
        <mxCell id="7NoqYiZV03NRhSZWAG24-86" value="&lt;b&gt;Paper &lt;br&gt;revision&lt;/b&gt;" style="rounded=0;whiteSpace=wrap;html=1;fontSize=28;fillColor=#60a917;strokeColor=#2D7600;fontColor=#ffffff;" parent="1" vertex="1">
          <mxGeometry x="1410" y="1460" width="170" height="110" as="geometry" />
        </mxCell>
        <mxCell id="7NoqYiZV03NRhSZWAG24-87" value="&lt;b&gt;Write thesis&lt;/b&gt;" style="rounded=0;whiteSpace=wrap;html=1;fontSize=28;fillColor=#1ba1e2;fontColor=#ffffff;strokeColor=#006EAF;" parent="1" vertex="1">
          <mxGeometry x="1440" y="1597" width="240" height="80" as="geometry" />
        </mxCell>
        <mxCell id="7NoqYiZV03NRhSZWAG24-88" value="&lt;b&gt;Graduation&lt;/b&gt;" style="rounded=0;whiteSpace=wrap;html=1;fontSize=28;fillColor=#1ba1e2;fontColor=#ffffff;strokeColor=#006EAF;" parent="1" vertex="1">
          <mxGeometry x="1710" y="1600" width="160" height="80" as="geometry" />
        </mxCell>
        <mxCell id="7NoqYiZV03NRhSZWAG24-89" value="&lt;b&gt;&lt;font style=&quot;font-size: 28px;&quot;&gt;&amp;nbsp;Read literature&lt;/font&gt;&lt;/b&gt;" style="rounded=0;whiteSpace=wrap;html=1;fontSize=18;align=left;fillColor=#6d8764;strokeColor=#3A5431;fontColor=#ffffff;" parent="1" vertex="1">
          <mxGeometry x="-500" y="1100" width="260" height="60" as="geometry" />
        </mxCell>
        <mxCell id="7NoqYiZV03NRhSZWAG24-90" value="&lt;span style=&quot;font-size: 28px;&quot;&gt;&lt;b&gt;&amp;nbsp;Method&lt;/b&gt;&lt;/span&gt;" style="rounded=0;whiteSpace=wrap;html=1;fontSize=18;align=left;fillColor=#a0522d;strokeColor=#6D1F00;fontColor=#ffffff;" parent="1" vertex="1">
          <mxGeometry x="-500" y="1170" width="260" height="60" as="geometry" />
        </mxCell>
        <mxCell id="7NoqYiZV03NRhSZWAG24-91" value="&lt;b style=&quot;border-color: var(--border-color);&quot;&gt;&lt;font style=&quot;border-color: var(--border-color); font-size: 28px;&quot;&gt;&amp;nbsp;DATA&lt;/font&gt;&lt;/b&gt;" style="rounded=0;whiteSpace=wrap;html=1;fontSize=18;align=left;fillColor=#647687;strokeColor=#314354;fontColor=#ffffff;" parent="1" vertex="1">
          <mxGeometry x="-500" y="1240" width="260" height="60" as="geometry" />
        </mxCell>
        <mxCell id="7NoqYiZV03NRhSZWAG24-92" value="&lt;div style=&quot;&quot;&gt;&lt;b style=&quot;background-color: initial;&quot;&gt;&amp;nbsp;Paper&lt;/b&gt;&lt;/div&gt;" style="rounded=0;whiteSpace=wrap;html=1;fontSize=28;fillColor=#60a917;strokeColor=#2D7600;fontColor=#ffffff;align=left;" parent="1" vertex="1">
          <mxGeometry x="-500" y="1310" width="260" height="60" as="geometry" />
        </mxCell>
        <mxCell id="7NoqYiZV03NRhSZWAG24-93" value="&lt;b&gt;&amp;nbsp;Graduation&lt;/b&gt;" style="rounded=0;whiteSpace=wrap;html=1;fontSize=28;fillColor=#1ba1e2;fontColor=#ffffff;strokeColor=#006EAF;align=left;" parent="1" vertex="1">
          <mxGeometry x="-500" y="1380" width="260" height="60" as="geometry" />
        </mxCell>
        <mxCell id="7NoqYiZV03NRhSZWAG24-101" value="&lt;div&gt;&lt;b&gt;&lt;font color=&quot;#000000&quot;&gt;&lt;br&gt;&lt;/font&gt;&lt;/b&gt;&lt;/div&gt;&lt;div&gt;&lt;font color=&quot;#000000&quot;&gt;&lt;b style=&quot;background-color: initial;&quot;&gt;&amp;nbsp;CM = Committee Meeting = time to&amp;nbsp; &amp;nbsp; &amp;nbsp; &amp;nbsp; &amp;nbsp; &amp;nbsp; refine project plans&lt;/b&gt;&lt;br&gt;&lt;/font&gt;&lt;/div&gt;&lt;div&gt;&lt;b&gt;&lt;font color=&quot;#000000&quot;&gt;&lt;br&gt;&lt;span style=&quot;&quot;&gt;        &lt;/span&gt;&lt;/font&gt;&lt;/b&gt;&lt;/div&gt;&lt;div&gt;&lt;span style=&quot;&quot;&gt;&lt;b&gt;&lt;font color=&quot;#000000&quot;&gt;        &lt;/font&gt;&lt;/b&gt;&lt;/span&gt;&lt;/div&gt;&lt;div&gt;&lt;b&gt;&lt;font color=&quot;#000000&quot;&gt;&amp;nbsp; IC = International Conference&lt;span style=&quot;&quot;&gt;        &lt;/span&gt;&lt;/font&gt;&lt;/b&gt;&lt;/div&gt;&lt;div&gt;&lt;br&gt;&lt;/div&gt;" style="rounded=0;whiteSpace=wrap;html=1;fontSize=28;align=left;fillColor=#f8cecc;strokeColor=#b85450;" parent="1" vertex="1">
          <mxGeometry x="-510" y="1507" width="545" height="170" as="geometry" />
        </mxCell>
        <mxCell id="7NoqYiZV03NRhSZWAG24-107" value="&lt;b&gt;CM&lt;/b&gt;" style="whiteSpace=wrap;html=1;aspect=fixed;fontSize=28;" parent="1" vertex="1">
          <mxGeometry x="1410" y="1340" width="100" height="100" as="geometry" />
        </mxCell>
        <mxCell id="7NoqYiZV03NRhSZWAG24-108" style="edgeStyle=orthogonalEdgeStyle;rounded=0;orthogonalLoop=1;jettySize=auto;html=1;exitX=0.5;exitY=1;exitDx=0;exitDy=0;fontSize=28;" parent="1" source="7NoqYiZV03NRhSZWAG24-87" target="7NoqYiZV03NRhSZWAG24-87" edge="1">
          <mxGeometry relative="1" as="geometry" />
        </mxCell>
        <mxCell id="7NoqYiZV03NRhSZWAG24-111" value="&lt;p style=&quot;&quot; align=&quot;center&quot; class=&quot;MsoSubtitle&quot;&gt;&lt;b&gt;&lt;font color=&quot;#1a1a1a&quot;&gt;Time Plan and Division of Tasks&lt;span style=&quot;font-family: Georgia, serif; background-color: initial;&quot;&gt;&lt;br&gt;&lt;/span&gt;&lt;/font&gt;&lt;/b&gt;&lt;/p&gt;&lt;p style=&quot;&quot; align=&quot;center&quot; class=&quot;MsoSubtitle&quot;&gt;&lt;b&gt;&lt;font color=&quot;#1a1a1a&quot;&gt;&lt;span style=&quot;font-family: Georgia, serif; background-color: initial;&quot;&gt;Heider &lt;/span&gt;&lt;span style=&quot;font-family: Georgia, serif; background-color: initial;&quot;&gt;Jeffer&lt;/span&gt;&lt;/font&gt;&lt;br&gt;&lt;/b&gt;&lt;/p&gt;" style="rounded=0;whiteSpace=wrap;html=1;fontSize=28;fillColor=#dae8fc;strokeColor=#6c8ebf;" parent="1" vertex="1">
          <mxGeometry x="-500" y="930" width="260" height="160" as="geometry" />
        </mxCell>
      </root>
    </mxGraphModel>
  </diagram>
</mxfile>
